<?xml version="1.0" encoding="UTF-8"?>
<svg width="18px" height="20px" viewBox="0 0 18 20" version="1.1" xmlns="http://www.w3.org/2000/svg" xmlns:xlink="http://www.w3.org/1999/xlink">
    <!-- Generator: Sketch 55.2 (78181) - https://sketchapp.com -->
    <title>路径</title>
    <desc>Created with Sketch.</desc>
    <g id="页面1" stroke="none" stroke-width="1" fill="none" fill-rule="evenodd">
        <g id="科技1" transform="translate(-1551.000000, -1539.000000)" fill-rule="nonzero">
            <g id="qq" transform="translate(1540.000000, 1539.000000)">
                <rect id="矩形" fill="#000000" opacity="0" x="0" y="0" width="20" height="20"></rect>
                <path d="M26.9949368,13.8613171 C26.9949368,13.8613171 26.4956035,15.2330967 25.5786319,16.4662387 C25.5786319,16.4662387 27.2150959,17.0271595 27.0788782,18.4819164 C27.0788782,18.4819164 27.1322579,20.1057838 23.5790915,19.9944241 C23.5790915,19.9944241 21.0802179,19.7991995 20.330203,18.7350694 L19.669509,18.7350694 C18.9203809,19.8002646 16.4215269,19.9944241 16.4215269,19.9944241 C12.8662128,20.1068489 12.9228634,18.4819164 12.9228634,18.4819164 C12.7844388,17.0271792 14.4220063,16.4662387 14.4220063,16.4662387 C13.5062367,15.2331361 13.0057408,13.8613171 13.0057408,13.8613171 C10.7838739,17.4735253 11.0061808,13.3570427 11.0061808,13.3570427 C11.4227549,10.9212711 13.1726779,9.32584509 13.1726779,9.32584509 C12.9228831,7.11370018 13.8387906,6.72078544 13.8387906,6.72078544 C14.0295308,-0.122905361 19.8777074,-0.00274891253 19.9999151,0.00050548898 C20.123049,-0.00270946524 25.9690384,-0.122885637 26.1619264,6.72080516 C26.1619264,6.72080516 27.0789374,7.11263511 26.8281771,9.32586482 C26.8281771,9.32586482 28.5769768,10.9213105 28.9934328,13.3570624 C28.9945165,13.3570427 29.2157988,17.4735253 26.9949762,13.8613171 L26.9949762,13.8613171 L26.9949762,13.8613171 L26.9949368,13.8613171 Z" id="路径" fill="#FFFFFF"></path>
            </g>
        </g>
    </g>
</svg>